<svg xmlns="http://www.w3.org/2000/svg" width="220" height="60" viewBox="0 0 220 60" role="img" aria-label="JoeQuest">
  <g transform="translate(0,4)">
    <path d="M26 0 C11.6 0 3.2 9.6 3.2 22.4 C3.2 38.4 26 56 26 56 C26 56 48.8 38.4 48.8 22.4 C48.8 9.6 40.4 0 26 0 Z" fill="#D98324"/>
    <path d="M15.4 16.8 H34.6 a1.6 1.6 0 0 1 1.6 1.6 V26.4 a10.4 10.4 0 0 1 -20.8 0 V18.4 a1.6 1.6 0 0 1 1.6 -1.6 Z" fill="#FFF6EC"/>
    <path d="M36.2 19.2 a5.2 5.2 0 0 1 0 10.4" fill="none" stroke="#FFF6EC" stroke-width="2.8" stroke-linecap="round"/>
    <ellipse cx="26" cy="23.4" rx="3.2" ry="2.8" fill="#5E3E27"/>
  </g>
  <text x="62" y="40" font-family="Poppins, 'Segoe UI', sans-serif" font-size="32" font-weight="600" letter-spacing="-0.5">
    <tspan fill="#5E3E27">Joe</tspan><tspan fill="#D98324">Quest</tspan>
  </text>
</svg>
